<?xml version="1.0" standalone="no"?>
<!DOCTYPE svg PUBLIC "-//W3C//DTD SVG 20010904//EN"
 "http://www.w3.org/TR/2001/REC-SVG-20010904/DTD/svg10.dtd">
<svg version="1.0" xmlns="http://www.w3.org/2000/svg"
 width="700.000000pt" height="700.000000pt" viewBox="0 0 700.000000 700.000000"
 preserveAspectRatio="xMidYMid meet">
<metadata>
Created by potrace 1.14, written by Peter Selinger 2001-2017
</metadata>
<g transform="translate(0.000000,700.000000) scale(0.100000,-0.100000)"
fill="#000000" stroke="none">
<path d="M1729 6738 c-166 -16 -298 -154 -354 -368 -16 -60 -17 -265 -17
-2846 l0 -2781 -149 -1 -149 -1 0 42 c-1 23 -2 760 -3 1637 l-2 1595 -23 40
c-78 136 -278 133 -349 -6 l-24 -46 -1 -1787 c0 -1996 -7 -1819 70 -1854 34
-16 235 -17 2682 -17 2852 0 2683 -3 2790 51 59 29 108 78 134 134 l21 45 2
2443 c1 1895 -2 2454 -11 2495 -7 29 -25 75 -40 102 -28 53 -42 68 -303 341
-90 94 -182 191 -205 215 -423 450 -480 504 -585 551 -45 20 -66 20 -1732 22
-927 0 -1716 -2 -1752 -6z m3189 -398 l42 0 -1 -451 c-1 -431 -1 -452 18 -477
11 -14 32 -35 47 -46 27 -20 41 -21 459 -23 238 -1 442 -3 454 -3 l21 0 0
-2299 0 -2299 -2099 0 -2099 0 0 22 c-1 28 -1 5513 -1 5548 1 22 6 27 29 30
20 2 2893 1 3130 -2z m368 -245 c29 -27 102 -96 274 -255 80 -74 176 -164 213
-200 38 -36 75 -69 83 -73 8 -4 14 -12 14 -16 0 -5 -160 -9 -355 -9 l-355 0
-1 32 c0 41 0 596 0 620 1 18 20 4 127 -99z"/>
<path d="M2363 5938 c-91 -10 -157 -49 -190 -112 -13 -25 -15 -101 -15 -515 0
-322 4 -495 11 -514 22 -58 -35 -55 1341 -55 1035 0 1270 2 1297 13 24 10 34
23 43 53 7 27 9 210 8 549 -3 470 -4 510 -21 534 -10 15 -31 32 -47 39 -22 9
-313 12 -1197 14 -642 0 -1196 -2 -1230 -6z m2219 -198 l77 0 0 -399 0 -399
-1152 0 -1152 1 2 396 1 396 829 5 c455 3 938 4 1073 3 135 -1 280 -3 322 -3z"/>
<path d="M2405 4340 c-66 -7 -91 -23 -105 -64 -14 -43 -5 -78 27 -108 l25 -23
511 -3 c282 -1 526 0 543 3 81 14 111 104 55 164 -25 26 -37 31 -78 32 -330 3
-939 3 -978 -1z"/>
<path d="M3784 4342 c-87 -14 -121 -110 -60 -171 l26 -26 673 -2 c461 -2 682
0 705 8 88 29 78 167 -13 185 -33 6 -1293 12 -1331 6z"/>
<path d="M2400 3842 c-50 -4 -77 -20 -95 -59 -20 -42 -13 -82 21 -114 25 -24
28 -24 256 -26 135 0 240 3 253 9 12 5 29 22 38 38 44 73 -2 149 -90 151 -217
3 -353 4 -383 1z"/>
<path d="M3163 3835 c-72 -20 -92 -114 -37 -166 l26 -24 381 -1 c412 -2 422
-1 445 51 33 73 -10 144 -90 146 -310 5 -696 2 -725 -6z"/>
<path d="M4394 3842 c-43 -7 -76 -26 -89 -53 -22 -42 -18 -75 14 -111 l29 -33
384 -1 c419 -2 424 -1 448 55 15 37 6 92 -18 114 -9 8 -30 19 -45 22 -27 7
-684 13 -723 7z"/>
<path d="M2403 3339 c-33 -3 -68 -12 -76 -20 -45 -45 -45 -108 -1 -150 l26
-24 425 -3 c294 -2 434 0 453 8 62 26 78 109 31 159 -25 27 -36 31 -83 32
-296 4 -725 3 -775 -2z"/>
<path d="M3611 3342 c-65 -4 -96 -23 -111 -67 -14 -42 -5 -77 27 -107 l25 -23
781 -1 c527 -1 790 2 805 9 78 35 61 167 -23 183 -34 6 -1402 12 -1504 6z"/>
<path d="M2420 2842 c-77 -8 -89 -13 -110 -48 -27 -43 -21 -90 16 -125 l26
-24 331 -1 c284 -2 336 1 359 14 83 49 48 181 -49 183 -141 2 -552 4 -573 1z"/>
<path d="M3410 2842 c-54 -4 -90 -22 -106 -54 -19 -37 -10 -89 23 -120 l25
-23 871 -2 c537 -1 884 2 902 8 91 28 82 167 -12 185 -34 6 -1629 12 -1703 6z"/>
<path d="M2400 2342 c-49 -4 -79 -21 -97 -55 -19 -38 -10 -87 23 -118 l26 -24
671 -2 c449 -2 683 1 705 8 88 29 78 168 -13 185 -33 6 -1244 12 -1315 6z"/>
<path d="M4105 2339 c-67 -8 -83 -16 -101 -51 -20 -39 -11 -88 22 -119 l26
-24 521 -2 c349 -2 533 1 555 8 88 29 78 168 -13 185 -43 8 -944 11 -1010 3z"/>
<path d="M2395 1839 c-57 -7 -82 -24 -95 -63 -14 -45 -4 -80 31 -110 l28 -24
778 0 c536 0 784 4 801 11 13 6 30 23 38 38 33 64 3 133 -63 145 -44 8 -1461
11 -1518 3z"/>
<path d="M4305 1839 c-66 -8 -83 -16 -100 -49 -19 -37 -11 -89 20 -120 l25
-25 433 -1 c287 -1 439 2 452 9 35 19 48 38 53 82 4 39 1 48 -26 75 -23 22
-40 30 -69 31 -200 4 -749 3 -788 -2z"/>
<path d="M2405 1342 c-53 -3 -83 -20 -102 -55 -19 -38 -10 -87 23 -118 l26
-24 381 -2 c412 -1 421 0 445 52 7 14 12 40 12 56 0 40 -48 89 -87 90 -118 2
-666 3 -698 1z"/>
<path d="M3593 1339 c-29 -4 -58 -13 -66 -21 -45 -44 -45 -107 -1 -149 l26
-24 381 -2 c333 -1 385 0 408 14 32 19 49 52 49 94 0 37 -47 89 -82 90 -160 4
-676 2 -715 -2z"/>
</g>
</svg>
